HIERARCHY
ROOT Hips
{
	OFFSET 0.000000 8.830580 0.000000
	CHANNELS 6 Xposition Yposition Zposition Zrotation Yrotation Xrotation 
	JOINT Spine
	{
		OFFSET 0.000000 0.010000 0.000000
		CHANNELS 3 Zrotation Yrotation Xrotation
		JOINT Spine1
		{
			OFFSET 0.000000 2.459130 0.000000
			CHANNELS 3 Zrotation Yrotation Xrotation
			JOINT Neck
			{
				OFFSET 0.000000 2.484630 0.000000
				CHANNELS 3 Zrotation Yrotation Xrotation
				JOINT Head_virtual
				{
					OFFSET 0.000000 0.000000 0.000000
					CHANNELS 3 Zrotation Yrotation Xrotation
					JOINT Head
					{
						OFFSET 0.000000 0.927525 0.000000
						CHANNELS 3 Zrotation Yrotation Xrotation
						End Site
						{
							OFFSET 0.000000 0.000000 0.000000
						}
					}
				}
				JOINT LeftUpArm_virtual
				{
					OFFSET 0.000000 0.000000 0.000000
					CHANNELS 3 Zrotation Yrotation Xrotation
					JOINT LeftUpArm
					{
						OFFSET 1.248820 0.000000 0.000000
						CHANNELS 3 Zrotation Yrotation Xrotation
						JOINT LeftForeArm
						{
							OFFSET 2.597580 0.000000 0.000000
							CHANNELS 3 Zrotation Yrotation Xrotation
							JOINT LeftHand
							{
								OFFSET 2.455420 0.000000 0.000000
								CHANNELS 3 Zrotation Yrotation Xrotation
								End Site
								{
									OFFSET 0.000000 0.000000 0.000000
								}
							}
						}
					}
				}
				JOINT RightUpArm_virtual
				{
					OFFSET -0.000000 -0.000000 -0.000000
					CHANNELS 3 Zrotation Yrotation Xrotation
					JOINT RightUpArm
					{
						OFFSET -1.248820 -0.000000 -0.000000
						CHANNELS 3 Zrotation Yrotation Xrotation
						JOINT RightForeArm
						{
							OFFSET -2.597580 -0.000000 -0.000000
							CHANNELS 3 Zrotation Yrotation Xrotation
							JOINT RightHand
							{
								OFFSET -2.455420 -0.000000 -0.000000
								CHANNELS 3 Zrotation Yrotation Xrotation
								End Site
								{
									OFFSET 0.000000 0.000000 0.000000
								}
							}
						}
					}
				}
			}
		}
	}
	JOINT LeftUpLeg
	{
		OFFSET 1.271939 0.000000 0.000000
		CHANNELS 3 Zrotation Yrotation Xrotation
		JOINT LeftLowLeg
		{
			OFFSET 0.000000 -4.342910 0.000000
			CHANNELS 3 Zrotation Yrotation Xrotation
			JOINT LeftFoot
			{
				OFFSET 0.000000 -4.487670 0.000000
				CHANNELS 3 Zrotation Yrotation Xrotation
				JOINT LeftToeBase
				{
					OFFSET 0.000000 0.000000 1.515070
					CHANNELS 3 Zrotation Yrotation Xrotation
					End Site
					{
						OFFSET 0.000000 0.000000 0.000000
					}
				}
			}
		}
	}
	JOINT RightUpLeg
	{
		OFFSET -1.271939 0.000000 0.000000
		CHANNELS 3 Zrotation Yrotation Xrotation
		JOINT RightLowLeg
		{
			OFFSET 0.000000 -4.342910 0.000000
			CHANNELS 3 Zrotation Yrotation Xrotation
			JOINT RightFoot
			{
				OFFSET 0.000000 -4.487670 0.000000
				CHANNELS 3 Zrotation Yrotation Xrotation
				JOINT RightToeBase
				{
					OFFSET 0.000000 0.000000 1.515070
					CHANNELS 3 Zrotation Yrotation Xrotation
					End Site
					{
						OFFSET 0.000000 0.000000 0.000000
					}
				}
			}
		}
	}
}
MOTION
Frames: 13
Frame Time: 0.041667
-26.982127 8.409395 54.240723 -174.709659 -27.724417 -161.289098 7.087914 7.932484 68.766976 15.282481 -1.522498 3.417878 0.000000 0.000000 0.000000 -14.814609 -34.428087 -1.060463 23.613763 36.819325 -100.439309 -15.726300 -19.977699 -21.332001 -14.540700 -42.332802 -4.757000 0.000000 -42.240002 0.000000 37.654099 -0.364755 -3.456210 19.773199 33.865398 26.192993 -21.297899 15.641700 -50.083900 0.000000 34.593800 0.000000 -24.429600 -1.888170 12.135500 7.376701 2.120348 -50.345806 0.000000 0.000000 42.522202 -21.416980 3.966240 -3.769140 0.000000 0.000000 -31.989000 9.273584 -8.168131 -47.563938 0.000000 0.000000 43.116001 10.466175 3.549047 0.994607 0.000000 0.000000 -40.542299 
-26.969798 8.429149 54.217017 -175.085260 -27.985637 -161.118121 7.372492 8.899772 67.382483 17.333728 -1.043460 4.404792 0.000000 0.000000 0.000000 -14.786743 -35.424513 -1.105606 24.027253 35.830124 -99.924864 -18.494600 -19.615900 -16.638000 -13.160300 -46.110600 -3.203050 0.000000 -45.617100 0.000000 38.999901 -1.668880 -2.835620 18.430500 33.486198 25.636993 -20.557400 15.823600 -49.748798 0.000000 34.467499 0.000000 -24.112000 -2.039950 11.594600 7.067990 2.211692 -49.912483 0.000000 0.000000 41.753700 -21.406346 3.667136 -3.169796 0.000000 0.000000 -31.347900 8.964761 -8.111017 -47.273054 0.000000 0.000000 42.802200 10.501349 3.289535 1.004555 0.000000 0.000000 -40.491100 
-26.961745 8.450414 54.195034 -175.479543 -28.301677 -161.098508 7.534327 8.987071 66.322147 18.244830 -0.764559 4.827601 0.000000 0.000000 0.000000 -15.925842 -35.586829 -0.152053 25.268132 35.172259 -99.385792 -20.845600 -18.866600 -11.366800 -11.148900 -49.454800 -4.116830 0.000000 -48.080399 0.000000 40.046200 -1.645860 -1.680360 18.075500 33.464901 25.360992 -19.621901 16.526501 -49.097198 0.000000 34.263599 0.000000 -24.336500 -1.987250 11.534500 6.696239 2.289307 -49.324683 0.000000 0.000000 40.964901 -21.299277 3.411716 -2.485007 0.000000 0.000000 -31.137400 8.647558 -8.210120 -46.795963 0.000000 0.000000 42.433399 10.504913 3.041528 1.031053 0.000000 0.000000 -40.385401 
-26.951041 8.471590 54.171512 -175.830026 -28.643411 -161.053602 7.624944 8.904176 65.058038 18.796910 -0.643810 5.394171 0.000000 0.000000 0.000000 -16.764760 -35.821206 0.852088 26.140927 34.752437 -98.995214 -22.561199 -17.986300 -7.620430 -11.189800 -52.135700 -4.516980 0.000000 -49.899899 0.000000 40.883999 -1.253560 -1.052800 18.181200 33.342499 25.496002 -19.151899 17.392700 -48.900902 0.000000 33.996498 0.000000 -23.695299 -2.092260 12.112300 6.370072 2.460794 -48.749511 0.000000 0.000000 40.125999 -21.407466 2.929746 -1.806561 0.000000 0.000000 -30.852900 8.388475 -8.273212 -46.343998 0.000000 0.000000 42.040401 10.521856 2.760911 1.068140 0.000000 0.000000 -40.375500 
-26.937597 8.492957 54.147857 -176.171880 -28.974914 -161.224756 7.621340 8.913640 63.811728 19.478861 -0.737868 6.290734 0.000000 0.000000 0.000000 -17.252863 -36.065602 1.514195 26.600545 34.394718 -98.661809 -22.527901 -17.215500 -10.504800 -21.003300 -52.061199 4.034520 0.000000 -51.927200 0.000000 41.436199 -1.328070 -0.569569 17.886200 33.209801 25.385986 -18.484301 18.452900 -48.725601 0.000000 33.913700 0.000000 -22.986401 -2.031400 12.208500 6.102491 2.672387 -47.965673 0.000000 0.000000 39.304001 -21.681960 2.233709 -1.030282 0.000000 0.000000 -30.792700 8.121439 -8.345419 -45.649117 0.000000 0.000000 41.587799 10.521475 2.451884 1.104912 0.000000 0.000000 -40.379900 
-26.928157 8.514910 54.128720 -176.547013 -29.257203 -161.415223 7.592134 8.331082 62.817052 19.056276 -0.978396 6.924885 0.000000 0.000000 0.000000 -17.374989 -36.206292 2.194607 26.739176 34.496450 -98.510936 -22.672400 -16.344200 -12.348600 -27.244301 -50.789001 10.105900 0.000000 -54.168098 0.000000 41.540501 -2.148700 -0.677544 17.895300 33.060600 25.975006 -17.781200 19.930799 -49.094799 0.000000 33.681801 0.000000 -23.387199 -1.501780 11.491700 5.790131 2.903595 -47.216120 0.000000 0.000000 38.610001 -21.917870 1.542384 -0.162359 0.000000 0.000000 -30.530100 7.789691 -8.455731 -44.928964 0.000000 0.000000 41.131401 10.554012 2.269843 1.186831 0.000000 0.000000 -40.249599 
-26.910907 8.533649 54.113019 -176.747332 -29.348615 -161.746017 7.662371 8.170551 61.732506 18.602770 -1.072831 8.003242 0.000000 0.000000 0.000000 -16.070158 -36.690865 1.953150 26.214932 34.735108 -98.214358 -22.967800 -16.066601 -12.456100 -29.336000 -49.892101 12.379400 0.000000 -56.933399 0.000000 40.925400 -2.334520 0.499261 17.334801 32.379700 24.645996 -16.481300 22.170200 -48.449001 0.000000 33.510799 0.000000 -23.442600 -1.459010 9.529920 5.562467 3.477963 -46.641841 0.000000 0.000000 38.329300 -22.153487 0.676776 0.822257 0.000000 0.000000 -30.521300 7.428472 -8.030190 -44.146324 0.000000 0.000000 40.615601 10.764978 1.877236 1.314806 0.000000 0.000000 -40.120899 
-26.898513 8.549830 54.101363 -177.010511 -29.432656 -162.313289 7.739602 7.468300 61.168156 17.360278 -1.280231 8.740959 0.000000 0.000000 0.000000 -14.881044 -36.862434 1.950167 25.878353 35.258540 -97.936259 -24.225100 -15.684700 -8.138530 -23.846701 -50.709702 7.340870 0.000000 -59.469898 0.000000 38.960701 -3.125060 1.977270 17.439699 31.825701 23.808990 -15.361200 24.503000 -47.988300 0.000000 33.306999 0.000000 -23.305401 -1.751510 8.223980 5.480028 3.646791 -46.020195 0.000000 0.000000 38.414501 -22.462027 -0.009521 1.964700 0.000000 0.000000 -31.153601 7.063638 -7.893888 -43.189859 0.000000 0.000000 40.203499 10.870024 1.649550 1.452602 0.000000 0.000000 -40.197300 
-26.881445 8.561676 54.088052 -177.166664 -29.349317 -162.736921 7.712866 7.417612 60.420679 16.765332 -1.445465 9.496380 0.000000 0.000000 0.000000 -13.443888 -37.340807 1.942074 25.082936 35.844500 -97.818163 -25.586201 -15.623500 -3.366420 -16.220501 -51.376099 0.646751 0.000000 -60.632999 0.000000 38.375301 -4.645230 3.547430 17.372299 31.097500 23.140015 -14.531400 26.585300 -47.339600 0.000000 32.962700 0.000000 -23.396099 -1.687780 7.744360 5.654916 3.794939 -45.930428 0.000000 0.000000 39.174500 -22.854295 -0.661602 3.174612 0.000000 0.000000 -32.073799 6.926657 -7.754628 -42.591529 0.000000 0.000000 40.049198 10.621292 1.396842 1.648290 0.000000 0.000000 -40.196301 
-26.871608 8.570895 54.081928 -177.227873 -29.308233 -163.302282 7.510192 6.300943 59.727810 15.155017 -2.151994 9.985114 0.000000 0.000000 0.000000 -15.087879 -36.656789 4.469215 25.371514 36.690304 -98.170814 -25.858101 -15.738300 -1.655180 -11.388300 -48.920700 -2.919910 0.000000 -61.012001 0.000000 39.634499 -5.409370 5.129420 18.197500 32.664101 23.542999 -13.279100 27.439301 -46.197399 0.000000 32.604900 0.000000 -22.953199 -1.798230 8.788650 6.051858 3.584775 -46.117945 0.000000 0.000000 40.521099 -23.394950 -1.088854 4.398596 0.000000 0.000000 -32.975401 6.849500 -7.765653 -41.909804 0.000000 0.000000 39.881699 10.460995 1.294062 1.854473 0.000000 0.000000 -40.215799 
-26.860580 8.576686 54.071378 -177.049917 -29.173202 -163.833988 7.328082 5.422012 59.642071 13.584139 -2.648618 9.556835 0.000000 0.000000 0.000000 -17.072369 -35.303603 6.889518 26.032357 37.660077 -98.486318 -25.647200 -15.449800 -1.571490 -9.007040 -46.604301 -3.811000 0.000000 -60.129902 0.000000 41.646400 -5.474690 5.236310 19.764000 33.730701 24.938995 -12.962300 28.134100 -45.059101 0.000000 32.388901 0.000000 -23.027700 -2.156410 7.078860 6.698103 3.500247 -46.629627 0.000000 0.000000 42.216702 -24.599246 -2.076977 5.469934 0.000000 0.000000 -33.661400 6.983034 -7.651232 -41.262536 0.000000 0.000000 39.554298 10.434309 1.328094 2.057553 0.000000 0.000000 -40.582399 
-26.855647 8.575794 54.065979 -176.866433 -28.951557 -164.195785 7.279314 4.675211 59.474075 12.020918 -2.905936 9.067988 0.000000 0.000000 0.000000 -18.314178 -34.420991 9.286909 26.285071 38.804564 -98.806306 -24.724501 -15.632500 -2.835940 -8.672730 -44.308800 -3.278400 0.000000 -58.161201 0.000000 42.642200 -5.284140 5.070620 21.151100 34.328201 26.179993 -12.199100 29.350700 -46.057800 0.000000 31.970800 0.000000 -22.580200 -1.547840 8.356000 7.536837 3.144444 -47.287160 0.000000 0.000000 43.834000 -27.220028 -3.386914 6.188451 0.000000 0.000000 -34.013901 7.141560 -7.622999 -40.974219 0.000000 0.000000 39.525700 10.376678 1.539676 2.208798 0.000000 0.000000 -40.275299 
-26.853759 8.571629 54.061057 -176.638984 -28.649763 -164.979127 7.200596 4.861795 59.486797 12.110763 -2.995993 9.312291 0.000000 0.000000 0.000000 -19.118939 -33.845771 10.515805 26.745968 39.121198 -98.673773 -23.920799 -16.362900 -4.676990 -8.952720 -42.725101 -2.936840 0.000000 -55.382599 0.000000 43.198200 -4.459680 5.679760 21.349501 34.362400 26.277008 -12.044200 29.910200 -44.380501 0.000000 31.974701 0.000000 -23.116199 -2.375540 8.440790 8.553580 2.664040 -47.204638 0.000000 0.000000 44.772800 -29.623448 -4.713236 6.180962 0.000000 0.000000 -35.388000 7.282881 -7.672671 -40.340359 0.000000 0.000000 39.594700 10.341635 1.866069 2.373560 0.000000 0.000000 -40.308399 
